<?xml version="1.0" standalone="no"?>
<!DOCTYPE svg PUBLIC "-//W3C//DTD SVG 20010904//EN"
 "http://www.w3.org/TR/2001/REC-SVG-20010904/DTD/svg10.dtd">
<svg version="1.0" xmlns="http://www.w3.org/2000/svg"
 width="600.000000pt" height="327.000000pt" viewBox="0 0 600.000000 327.000000"
 preserveAspectRatio="xMidYMid meet">
<g transform="translate(0.000000,327.000000) scale(0.100000,-0.100000)"
fill="#000000" stroke="none">
<path d="M2875 2521 c-197 -33 -345 -106 -488 -241 -116 -109 -200 -246 -243
-394 -10 -36 -23 -65 -29 -63 -19 6 -55 82 -55 115 0 18 11 59 25 92 14 33 25
74 25 92 0 55 -38 110 -95 138 -49 24 -55 25 -375 32 -179 3 -354 10 -389 14
-62 7 -63 6 -56 -15 8 -26 46 -25 -468 -10 -213 6 -390 9 -393 6 -10 -10 42
-111 80 -154 42 -48 152 -124 209 -144 53 -19 26 -27 -85 -28 -49 -1 -88 -5
-88 -10 0 -21 91 -130 142 -169 62 -48 157 -89 223 -99 50 -6 61 -23 18 -24
-16 0 -59 -8 -97 -17 l-69 -17 47 -51 c96 -107 207 -156 358 -158 54 0 98 -2
98 -4 0 -2 -30 -16 -67 -33 l-68 -30 25 -20 c42 -33 142 -76 204 -89 66 -14
153 -7 219 16 l42 15 -48 -49 -49 -50 49 -18 c65 -26 191 -26 256 0 27 10 50
16 52 14 2 -2 -12 -36 -31 -76 -19 -41 -34 -76 -34 -79 0 -3 33 -4 73 -1 55 2
86 10 126 30 l52 27 -7 -33 -6 -34 35 7 c87 20 175 76 219 141 16 23 18 24 28
7 6 -9 37 -50 69 -90 220 -273 581 -390 926 -302 79 20 214 85 289 139 70 50
180 161 221 224 26 40 45 53 45 32 0 -41 167 -150 230 -150 24 0 26 3 22 30
l-4 31 33 -20 c51 -29 108 -43 167 -39 l52 3 -35 74 c-20 41 -34 75 -32 77 2
3 24 -3 48 -12 64 -25 202 -25 257 0 23 10 42 22 42 26 0 4 -20 24 -46 45 -25
20 -43 39 -41 41 2 2 23 -2 46 -11 129 -45 292 -18 410 69 l33 25 -74 34 -73
35 62 -5 c132 -12 289 45 386 140 31 30 57 60 57 65 0 10 -57 26 -132 37 -50
8 -66 25 -23 25 41 0 143 38 201 76 65 41 131 108 163 164 l22 40 -83 0 c-46
0 -94 3 -107 7 -20 5 -14 10 45 38 113 52 254 201 254 269 0 21 65 21 -642 0
l-218 -7 0 23 c0 22 -2 23 -57 15 -32 -4 -204 -10 -383 -13 -320 -7 -326 -8
-375 -32 -90 -45 -119 -131 -76 -226 40 -87 35 -148 -13 -193 l-24 -22 -21 71
c-90 295 -337 533 -636 610 -89 24 -269 34 -350 21z m255 -62 c294 -47 540
-248 654 -531 29 -75 56 -215 56 -298 0 -250 -129 -509 -328 -660 -441 -334
-1069 -165 -1281 345 -49 117 -64 210 -59 355 4 106 10 139 37 220 88 262 278
452 538 539 118 40 258 51 383 30z m-1645 -220 c50 -4 166 -9 259 -9 188 0
235 -9 272 -53 28 -33 31 -75 9 -137 -34 -95 -10 -209 56 -264 27 -23 42 -76
21 -76 -15 0 -87 56 -115 90 -43 51 -57 85 -78 187 -10 52 -22 99 -25 105 -16
26 -79 39 -185 39 -149 -1 -290 14 -333 34 -37 18 -106 82 -106 99 0 5 28 6
68 2 37 -4 108 -12 157 -17z m3256 4 c-14 -26 -62 -69 -96 -86 -48 -23 -99
-29 -281 -32 -232 -4 -243 -10 -264 -141 -12 -76 -49 -166 -83 -203 -25 -27
-96 -81 -107 -81 -4 0 -10 10 -14 22 -4 17 4 32 34 63 73 75 86 148 49 265
-21 64 -21 67 -4 104 31 65 49 69 335 78 140 4 280 12 310 17 30 5 72 9 93 10
33 1 37 -1 28 -16z m-3900 -19 l376 -7 26 -32 26 -33 -106 -7 c-96 -7 -294 -2
-458 10 l-60 5 42 -14 c49 -17 260 -43 414 -52 l106 -6 31 -44 32 -44 -134 0
c-385 0 -541 41 -664 174 -45 48 -53 71 -24 62 9 -2 186 -8 393 -12z m4720
-22 c-52 -74 -145 -135 -251 -166 -70 -20 -256 -36 -432 -36 l-137 0 27 44
c26 43 28 44 92 50 36 3 90 6 121 6 96 0 389 43 377 56 -2 2 -80 -1 -174 -7
-93 -5 -232 -7 -309 -3 l-141 6 31 34 31 34 200 3 c109 1 286 3 392 5 l193 2
-20 -28z m-3784 -140 c10 -6 -28 -12 -113 -17 -71 -4 -147 -10 -169 -14 l-40
-8 43 -12 c68 -19 202 -31 270 -25 39 4 62 3 62 -3 0 -14 -257 -46 -328 -41
-65 5 -130 34 -179 81 -63 60 -59 61 202 54 130 -3 243 -10 252 -15z m2943 11
c0 -22 -59 -76 -111 -102 -49 -24 -75 -31 -122 -31 -84 0 -307 31 -301 42 3 5
28 7 55 4 62 -7 221 9 274 27 l39 14 -49 6 c-28 3 -103 9 -168 13 -65 4 -115
10 -111 13 15 15 494 29 494 14z m-3365 -135 c14 -6 25 -14 25 -18 0 -14 -242
-41 -490 -56 -103 -6 -117 -9 -80 -15 90 -14 287 -20 390 -11 l105 9 35 -33
c18 -18 31 -36 28 -39 -8 -8 -215 -32 -343 -40 -207 -12 -350 30 -443 129
l-47 51 100 7 c107 8 464 24 607 26 49 1 98 -3 113 -10z m3855 -9 c140 -6 256
-12 258 -14 2 -2 -19 -27 -47 -55 -98 -98 -241 -139 -441 -125 -103 7 -341 33
-346 37 -1 2 12 19 29 38 l30 34 76 -4 c159 -10 485 1 469 15 -2 2 -88 8 -193
14 -180 11 -404 37 -415 48 -3 2 4 11 15 20 22 16 -6 17 565 -8z m-3355 -8
c-6 -5 -74 -24 -153 -42 -88 -20 -139 -36 -133 -42 14 -14 178 -12 238 2 96
23 76 6 -44 -37 -181 -66 -241 -66 -340 2 -81 56 -78 58 149 89 112 16 210 30
218 32 34 7 74 5 65 -4z m2465 -11 c74 -10 173 -24 220 -30 46 -6 88 -14 93
-17 12 -7 -31 -51 -80 -80 -71 -41 -130 -41 -258 1 -60 20 -123 43 -140 51
l-30 15 35 -5 c131 -21 177 -24 226 -19 30 4 56 10 59 13 2 4 -60 22 -138 39
-78 18 -146 37 -151 42 -14 14 9 13 164 -10z m-2400 -109 c0 -5 -9 -12 -20
-16 -11 -3 -70 -31 -132 -61 l-113 -55 67 5 c40 3 98 17 144 35 43 17 79 29
81 27 9 -8 -184 -130 -226 -143 -54 -16 -118 -10 -171 17 -73 37 -70 44 32 84
107 41 319 116 331 116 4 0 7 -4 7 -9z m2282 -27 c56 -19 152 -54 212 -76
l109 -42 -29 -23 c-33 -26 -106 -53 -143 -53 -49 1 -127 36 -209 94 -46 32
-82 60 -80 62 2 2 39 -10 82 -27 65 -25 222 -53 206 -37 -3 3 -62 32 -132 63
-71 32 -128 61 -128 66 0 12 -4 13 112 -27z m-2722 -54 c11 -7 8 -11 -15 -20
-43 -17 -257 -75 -350 -95 -119 -26 -133 -36 -40 -29 82 6 220 26 311 46 49
10 53 9 89 -17 45 -35 46 -34 -114 -80 -154 -44 -279 -60 -357 -46 -66 12
-164 57 -209 94 l-30 25 27 7 c87 22 609 123 638 124 19 0 42 -3 50 -9z m3395
-45 c127 -25 246 -50 265 -54 19 -5 48 -12 64 -16 l29 -6 -24 -25 c-33 -35
-134 -82 -204 -95 -94 -17 -213 2 -443 71 l-74 21 40 30 41 30 108 -20 c165
-31 335 -50 321 -36 -3 3 -95 28 -204 55 -224 56 -292 79 -272 92 20 14 101 3
353 -47z m-2960 -60 c-49 -47 -84 -84 -78 -85 29 -1 118 41 168 79 30 23 57
41 61 41 7 0 -68 -91 -114 -137 -42 -42 -125 -67 -192 -58 -91 13 -91 23 1 90
137 100 233 164 239 158 3 -2 -35 -42 -85 -88z m2158 53 c107 -72 247 -178
247 -186 0 -11 -68 -32 -102 -32 -13 0 -49 7 -79 16 -42 12 -65 28 -106 71
-29 30 -62 68 -74 85 -20 28 -18 27 44 -15 58 -40 162 -85 172 -75 2 2 -36 39
-85 83 -81 72 -101 95 -84 95 3 0 33 -19 67 -42z m-2013 -135 c-28 -43 -45
-80 -39 -82 6 -2 28 11 49 27 37 30 50 32 50 6 0 -19 -58 -83 -91 -100 -30
-15 -119 -20 -119 -5 0 20 174 231 191 231 4 0 -14 -35 -41 -77z m1902 25 c57
-68 138 -175 138 -182 0 -14 -94 -4 -128 13 -42 21 -82 70 -82 100 0 18 5 16
51 -15 29 -19 54 -33 56 -30 2 2 -15 35 -39 72 -61 95 -60 94 -50 94 5 0 29
-24 54 -52z m-2332 -27 c0 -4 -68 -42 -151 -84 -83 -42 -141 -77 -129 -77 27
0 159 44 211 70 l39 20 41 -21 c23 -11 37 -24 33 -29 -5 -4 -45 -27 -90 -49
-90 -45 -178 -71 -239 -71 -51 0 -141 22 -180 43 l-30 16 80 37 c208 97 368
161 391 156 13 -2 24 -7 24 -11z m2970 -59 c63 -27 151 -66 195 -87 l80 -37
-35 -18 c-88 -45 -211 -49 -322 -11 -63 22 -188 88 -188 100 0 4 16 15 36 24
35 17 36 17 102 -12 57 -25 205 -72 222 -71 3 1 -31 19 -75 41 -44 23 -118 62
-165 87 -81 44 -84 47 -55 52 32 7 33 7 205 -68z m-679 -124 c19 -38 19 -38 0
-38 -34 0 -72 22 -67 39 3 9 8 29 12 45 7 28 8 28 21 10 8 -10 23 -36 34 -56z
m-1776 25 c5 -29 3 -40 -11 -50 -18 -13 -64 -18 -64 -7 0 12 52 94 60 94 4 0
11 -17 15 -37z m-425 -54 l-85 -81 52 26 c29 14 77 46 107 71 31 25 58 45 60
45 2 0 2 -9 -1 -20 -4 -14 0 -20 11 -20 51 0 -30 -81 -125 -124 -30 -14 -75
-28 -101 -31 -53 -8 -121 1 -116 15 2 5 50 52 108 104 91 84 109 96 140 96
l35 -1 -85 -80z m2665 -23 l110 -104 -39 -7 c-49 -10 -143 7 -202 35 -24 12
-65 41 -91 64 -46 42 -47 43 -25 55 19 10 20 15 11 32 -6 13 14 1 53 -29 62
-48 158 -108 158 -99 0 2 -35 39 -77 81 l-78 76 35 0 c31 0 48 -13 145 -104z
m-2415 19 c0 -2 -21 -38 -46 -80 -25 -42 -44 -78 -41 -81 4 -5 54 47 98 104
l25 33 13 -24 c12 -22 10 -30 -23 -81 -22 -35 -54 -68 -83 -86 -46 -30 -108
-48 -120 -36 -7 7 65 148 109 214 18 25 37 42 48 42 11 0 20 -2 20 -5z m2133
-33 c30 -46 117 -206 117 -215 0 -14 -47 -6 -95 17 -57 27 -93 62 -129 125
-23 41 -23 46 -8 57 15 11 26 3 80 -54 l64 -67 -28 50 c-15 28 -36 64 -46 80
-23 38 -23 45 1 45 10 0 29 -17 44 -38z m-1913 -38 c0 -34 -22 -73 -62 -110
-36 -34 -94 -67 -108 -62 -14 5 46 171 67 186 27 20 28 -4 3 -62 -11 -26 -20
-50 -20 -53 0 -14 34 26 67 78 36 60 53 67 53 23z m1737 -100 c3 2 -5 30 -16
62 -24 62 -23 71 6 55 22 -11 82 -175 70 -188 -20 -19 -132 70 -163 129 -13
24 -14 36 -5 56 11 24 13 23 58 -47 25 -40 48 -70 50 -67z"/>
<path d="M2888 2399 c-165 -24 -313 -101 -438 -228 -453 -462 -174 -1239 470
-1310 316 -35 631 136 774 421 25 51 54 122 63 158 24 89 24 290 0 380 -25 93
-98 235 -156 306 -170 205 -448 312 -713 273z m202 -120 c196 -31 353 -133
461 -297 168 -255 129 -598 -91 -812 -79 -76 -150 -121 -252 -158 -65 -24 -87
-27 -203 -27 -143 0 -183 9 -307 71 -82 41 -193 143 -248 228 -22 33 -52 97
-67 141 -25 71 -28 94 -28 210 0 115 4 138 27 203 39 107 83 177 166 259 57
58 91 82 165 117 50 24 117 49 147 55 30 6 64 13 75 15 38 7 90 6 155 -5z"/>
<path d="M2844 1960 c-158 -41 -331 -159 -432 -294 -12 -16 -22 -32 -22 -37 0
-16 102 -123 167 -175 142 -114 283 -167 443 -168 155 0 285 46 432 156 78 57
178 165 178 190 0 24 -122 151 -195 203 -82 59 -187 109 -266 129 -86 21 -216
20 -305 -4z m334 -65 c100 -32 202 -95 291 -180 71 -68 75 -74 64 -98 -15 -32
-142 -141 -217 -186 -109 -65 -178 -85 -306 -85 -86 -1 -129 4 -170 17 -77 26
-166 72 -225 117 -64 48 -155 138 -155 153 0 19 125 134 197 180 176 113 340
139 521 82z"/>
<path d="M2930 1891 c-73 -23 -147 -88 -176 -156 -10 -23 -17 -67 -17 -105 0
-150 116 -264 268 -263 151 1 259 113 260 268 0 60 -4 78 -31 125 -61 107
-194 164 -304 131z"/>
<path d="M1583 2189 c6 -4 64 -12 127 -19 181 -19 228 -51 231 -157 2 -82 15
-90 22 -13 13 150 -35 186 -255 192 -76 2 -132 1 -125 -3z"/>
<path d="M1960 1910 c0 -7 3 -10 7 -7 3 4 3 10 0 14 -4 3 -7 0 -7 -7z"/>
<path d="M4270 2191 c-201 -9 -230 -33 -228 -191 1 -41 -2 -86 -6 -100 -5 -20
-5 -21 3 -8 6 9 16 51 22 94 12 88 28 127 64 150 15 10 80 23 165 34 77 9 144
20 147 24 3 3 -2 5 -13 4 -10 -1 -80 -4 -154 -7z"/>
</g>
</svg>
