<?xml version="1.0" encoding="utf-8"?><!-- Uploaded to: SVG Repo, www.svgrepo.com, Generator: SVG Repo Mixer Tools -->
<svg width="800px" height="800px" viewBox="0 0 24 24" xmlns="http://www.w3.org/2000/svg" id="signal" class="icon glyph"><path d="M12,11.36a2,2,0,1,1,2-2A2,2,0,0,1,12,11.36Zm0-2h0Zm0,0h0Zm0,0h0Zm0,0h0Zm0,0h0Zm0,0h0Zm0,0h0Zm0,0h0Z" style="fill:#231f20"></path><path d="M12,22a1,1,0,0,1-1-1V11.36a1,1,0,0,1,2,0V21A1,1,0,0,1,12,22Z" style="fill:#231f20"></path><path d="M15.54,13.9a1,1,0,0,1-.71-1.71,4,4,0,0,0,0-5.65,1,1,0,0,1,0-1.42,1,1,0,0,1,1.41,0,6,6,0,0,1,0,8.49A1,1,0,0,1,15.54,13.9Z" style="fill:#231f20"></path><path d="M8.46,13.9a1,1,0,0,1-.7-.29,6,6,0,0,1,0-8.49,1,1,0,0,1,1.41,0,1,1,0,0,1,0,1.42,4,4,0,0,0,0,5.65,1,1,0,0,1-.71,1.71Z" style="fill:#231f20"></path><path d="M18.36,16.73a1,1,0,0,1-.7-1.71,8,8,0,0,0,0-11.31,1,1,0,0,1,0-1.42,1,1,0,0,1,1.41,0,10,10,0,0,1,0,14.15A1,1,0,0,1,18.36,16.73Z" style="fill:#231f20"></path><path d="M5.64,16.73a1,1,0,0,1-.71-.29,10,10,0,0,1,0-14.15,1,1,0,0,1,1.41,0,1,1,0,0,1,0,1.42A8,8,0,0,0,6.34,15a1,1,0,0,1-.7,1.71Z" style="fill:#231f20"></path></svg>